<svg width="55" height="71" viewBox="0 0 55 71" fill="none" xmlns="http://www.w3.org/2000/svg">
<path d="M7.94522 1C5.50044 1 4.12847 6.83085 4.34598 9.69986C4.54367 12.3097 5.33773 15.3712 6.33818 17.6313C6.91189 19.6707 7.61258 21.6123 8.40589 23.1426C9.01052 24.3086 9.68059 25.2062 10.295 25.7643C11.1146 24.618 12.0572 23.4564 13.1567 22.3591C13.5809 21.9358 14.023 21.5303 14.4817 21.1435C13.1919 20.7571 12.07 20.1504 11.1248 19.391C10.065 18.5396 9.21391 17.527 8.4883 16.4588C7.0012 14.0374 6.0821 12.4335 5.92449 10.3482C5.73761 7.88574 5.50044 3.4075 7.94522 1ZM47.0595 1C49.5042 3.4075 49.267 7.88574 49.0804 10.3482C48.9224 12.4335 48.0034 14.0372 46.5166 16.4588C45.7905 17.527 44.9396 18.5397 43.8798 19.391C42.9327 20.1521 41.8084 20.7596 40.5151 21.1457C40.9808 21.5381 41.4294 21.9498 41.8597 22.3796C42.9534 23.4721 43.8914 24.6273 44.7075 25.7663C45.3225 25.2083 45.9935 24.3103 46.5989 23.1424C47.3925 21.6121 48.0929 19.6707 48.6667 17.6315C49.667 15.3712 50.4611 12.3097 50.6589 9.69986C50.8761 6.83085 49.5042 1 47.0595 1ZM2.29313 12.0193C0.969191 18.3344 2.77497 24.6126 7.05224 31.0848C7.54308 30.2001 8.09172 29.1956 8.77771 28.0684C7.61859 27.1775 6.73221 25.8706 5.95646 24.3746C4.97207 22.476 4.18866 20.2192 3.56077 17.9005C3.02189 15.9103 2.60009 13.8885 2.29313 12.0193ZM52.7116 12.0193C52.4047 13.8885 51.9829 15.9103 51.4438 17.9005C50.8161 20.2192 50.0325 22.476 49.0481 24.3746C48.2724 25.8709 47.3859 27.1781 46.2262 28.069C46.9154 29.1996 47.4636 30.2036 47.9524 31.0847C52.2299 24.6126 54.0354 18.3342 52.7116 12.0193ZM27.5024 19.2069C21.7616 19.2069 17.9541 21.4279 15.1144 24.2616C12.2744 27.0954 10.5036 30.551 9.14726 32.9553C7.775 35.3879 6.39522 38.7465 3.88095 40.6035C1.79808 42.1419 0.989005 44.2186 1.00011 46.8536C1.01107 49.4886 1.95629 52.6129 3.49277 55.6828C6.30216 61.2968 11.1416 66.6781 14.8657 69C15.1383 68.3599 15.2031 67.5785 15.1218 66.5863C14.2875 66.0896 13.5075 65.3911 12.7486 64.602C11.2575 63.0518 9.84136 61.0232 8.58046 58.8501C7.31957 56.6771 6.22275 54.3646 5.42884 52.2537C4.63478 50.1427 4.12097 48.285 4.12097 46.7427C4.12097 47.6079 6.66286 49.3615 7.39688 51.3132C8.1309 53.2648 9.78417 55.4662 10.9679 57.5065C12.0557 59.3814 13.2701 61.1223 14.4369 62.4081C14.3438 61.8445 14.2627 61.2731 14.2142 60.6985C14.0461 58.7132 14.3277 56.4908 16.0702 54.9219C16.165 54.8369 16.2625 54.7548 16.3624 54.6757C14.9886 52.0946 13.9041 49.317 13.9041 46.7429C15.1871 42.3903 20.0651 41.5985 23.2287 40.1109L22.5496 37.1396C19.3959 38.5789 11.4298 37.145 11.7007 33.3878C11.7728 32.3904 12.721 31.9746 13.9861 31.995C14.745 32.0074 15.6177 32.1768 16.4841 32.4725C18.7483 33.2456 20.821 34.5627 22.5105 36.969L21.4049 32.1332C20.6232 31.8056 19.8608 31.4544 19.1383 31.1073C16.5598 29.8697 14.5466 28.6315 14.5466 28.6315L16.0026 26.3337C16.0026 26.3337 17.9069 27.503 20.3431 28.6727C22.7796 29.8423 25.8144 30.9434 27.4979 30.9434C29.1813 30.9434 32.2165 29.8423 34.6528 28.6727C37.089 27.503 38.9934 26.3335 38.9934 26.3335L40.4495 28.6312C40.4495 28.6312 38.4362 29.8693 35.8577 31.107C35.1039 31.4692 34.3068 31.8358 33.4894 32.1753L32.4122 37.0835C34.1162 34.6029 36.2199 33.2574 38.5206 32.4722C39.3867 32.1765 40.2596 32.007 41.0187 31.9947C42.2836 31.974 43.232 32.39 43.3039 33.3872C43.5762 37.1642 35.5243 38.5944 32.4047 37.1179L31.7507 40.0981C34.9698 41.2766 40.8617 43.559 41.1008 46.7424C41.1008 49.3164 40.0163 52.0943 38.6423 54.6752C38.7422 54.7544 38.8395 54.8365 38.9343 54.9215C40.6767 56.4904 40.9582 58.7126 40.7902 60.6981C40.7417 61.2687 40.6611 61.8363 40.5693 62.3959C41.7326 61.1113 42.9432 59.3752 44.0277 57.5062C45.2114 55.4662 46.8647 53.2647 47.5987 51.3131C48.3327 49.3613 50.8745 47.6078 50.8745 46.7426C50.8745 48.2848 50.3611 50.1426 49.5671 52.2535C48.773 54.3645 47.6762 56.6771 46.4154 58.8501C45.1545 61.0232 43.7384 63.0518 42.2474 64.602C41.4909 65.388 40.7143 66.0844 39.8833 66.5808C39.8013 67.5757 39.8657 68.3586 40.1388 68.9999C43.8494 66.6834 48.6877 61.3026 51.5 55.6881C53.0386 52.6172 53.9866 49.4907 53.9998 46.8543C54.0131 44.2181 53.2058 42.1416 51.1234 40.6033C48.5908 38.7329 47.2502 35.4247 45.857 32.9553C44.5155 30.577 42.7453 27.1221 39.9008 24.2811C37.0566 21.4402 33.2406 19.2066 27.5021 19.2066L27.5024 19.2069ZM24.4692 33.2055L25.8002 39.0281C26.3691 38.86 26.9179 38.7679 27.5024 38.7679C28.0764 38.7679 28.6157 38.8569 29.1738 39.0192L30.4448 33.2265C29.4417 33.4888 28.4468 33.6523 27.4979 33.6523C26.5231 33.6523 25.5 33.4808 24.4692 33.2058V33.2055ZM21.7383 43.2385C21.7338 43.24 21.729 43.2404 21.7243 43.2415C19.7955 43.7166 17.7465 45.1984 16.6754 47.0679C16.7074 47.6437 16.824 48.2893 17.0064 48.9753C18.2537 50.3036 19.7123 51.9771 21.156 52.79C22.0291 53.2815 22.7667 53.4493 23.527 53.2561C24.234 53.0763 25.5193 52.7357 26.1214 51.1357C26.4329 50.3078 26.5917 48.1375 25.7813 47.9958C25.1918 47.8796 24.5534 47.5592 24.0857 47.0985C23.2533 46.279 22.7047 45.1605 21.7386 43.2388L21.7383 43.2385ZM33.2664 43.2385C32.3001 45.1602 31.7514 46.279 30.9192 47.0985C30.4517 47.5592 29.813 47.8796 29.2236 47.9958C28.4926 47.9873 28.5641 50.4697 28.8715 51.108C29.6115 52.6447 30.7622 53.0765 31.4692 53.2559C32.2312 53.4496 32.9703 53.2814 33.8439 52.7897C35.2924 51.9752 36.7545 50.2959 38.0003 48.9669C38.1814 48.2839 38.2976 47.6415 38.3291 47.0681C37.2582 45.1985 35.2093 43.7169 33.2803 43.2417C33.2758 43.2407 33.271 43.2403 33.2663 43.2388L33.2664 43.2385ZM27.4967 53.7667C26.4722 54.8804 25.376 55.5835 24.2143 55.8787C22.6082 56.2873 21.0558 55.8532 19.7907 55.141C19.7835 55.1369 19.7764 55.1321 19.7691 55.1282C21.1239 57.3603 22.6511 59.3106 23.5854 60.2307C24.4834 61.1151 25.9745 61.6394 27.5024 61.6394C29.0305 61.6394 30.521 61.1151 31.4194 60.2307C32.3541 59.31 33.8826 57.3574 35.2381 55.1233C35.2282 55.1292 35.2186 55.1357 35.2084 55.1413C33.9427 55.8534 32.3889 56.287 30.7817 55.8785C29.6195 55.5832 28.5222 54.8804 27.4967 53.7664V53.7667Z" fill="#F87060" stroke="#F87060" stroke-width="1.5625" stroke-linecap="round"/>
</svg>
